<?xml version="1.0" encoding="UTF-8"?>
<!-- Generated by Pixelmator Pro 3.5.6 -->
<svg width="12" height="12" viewBox="0 0 12 12" xmlns="http://www.w3.org/2000/svg">
    <path id="Path" fill="#ffffff" fill-rule="evenodd" stroke="none" d="M 4.265647 1.886835 C 2.69136 2.587575 1.59375 4.165605 1.59375 6 C 1.59375 8.485275 3.608745 10.462829 6.09375 10.5 C 6.246765 10.502289 6.216283 9.75032 6.09375 9.75 C 4.022692 9.744584 2.34375 8.071051 2.34375 6 C 2.34375 4.73328 2.971815 3.61326 3.933517 2.934345 Z"/>
    <path id="Path-copy" fill="#424242" fill-rule="evenodd" stroke="none" visibility="hidden" d="M 4.171897 1.886835 C 2.59761 2.587575 1.5 4.165605 1.5 6 C 1.5 8.485275 3.514717 10.5 6 10.5 C 8.485275 10.5 10.5 8.485275 10.5 6 C 10.5 3.9939 9.187275 2.2944 7.373993 1.713623 L 7.14726 2.428741 C 8.657175 2.913413 9.75 4.329082 9.75 6 C 9.75 8.071051 8.071051 9.75 6 9.75 C 3.928935 9.75 2.25 8.071051 2.25 6 C 2.25 4.73328 2.878065 3.61326 3.839767 2.934345 L 4.171897 1.886835 Z"/>
    <path id="path1" fill="#ffffff" fill-rule="evenodd" stroke="none" d="M 3.84375 2.25 L 1.59375 2.25 L 1.59375 1.5 L 4.21875 1.5 L 4.59375 1.875 L 4.59375 4.5 L 3.84375 4.5 L 3.84375 2.25 Z"/>
    <path id="Path-copy-3" fill="#ffffff" fill-rule="evenodd" stroke="none" d="M 7.734353 10.113165 C 9.30864 9.412425 10.40625 7.834395 10.40625 6 C 10.40625 3.514725 8.391254 1.537171 5.90625 1.5 C 5.753235 1.497711 5.783717 2.24968 5.90625 2.25 C 7.977308 2.255416 9.65625 3.928949 9.65625 6 C 9.65625 7.26672 9.028185 8.38674 8.066483 9.065655 Z"/>
    <path id="Path-copy-2" fill="#ffffff" fill-rule="evenodd" stroke="none" d="M 8.0625 9.75 L 10.3125 9.75 L 10.3125 10.5 L 7.6875 10.5 L 7.3125 10.125 L 7.3125 7.5 L 8.0625 7.5 L 8.0625 9.75 Z"/>
</svg>
